<?xml version="1.0" encoding="UTF-8"?>
<svg width="40px" height="40px" viewBox="0 0 40 40" version="1.1" xmlns="http://www.w3.org/2000/svg" xmlns:xlink="http://www.w3.org/1999/xlink">
    <!-- Generator: sketchtool 52.3 (67297) - http://www.bohemiancoding.com/sketch -->
    <title>99531CD3-7958-4F15-B40A-EF9B55903893</title>
    <desc>Created with sketchtool.</desc>
    <g id="Page-1" stroke="none" stroke-width="1" fill="none" fill-rule="evenodd">
        <g id="3-Чат" transform="translate(-1400.000000, -438.000000)">
            <g id="Group" transform="translate(1384.000000, 374.000000)">
                <g id="operator" transform="translate(0.000000, 48.000000)">
                    <g id="ic-dispatcher" transform="translate(15.000000, 15.000000)">
                        <path d="M15.0484848,32.36 L9.08,35.6145455 C8.73675758,35.8062307 8.41563558,36.035081 8.12242424,36.2969697 C11.7227564,39.3398362 16.2860434,41.0063981 21,41 C25.8715152,41 30.3333333,39.2569697 33.8024242,36.3624242 C33.4815257,36.08652 33.1287048,35.8500853 32.7515152,35.6581818 L26.3612121,32.4630303 C25.5353089,32.0505949 25.0134473,31.2067935 25.0133333,30.2836364 L25.0133333,27.7769697 C25.1927273,27.5721212 25.3987879,27.3090909 25.6181818,26.9987879 C26.4804483,25.7736528 27.1504054,24.4239283 27.6048485,22.9963636 C28.4461689,22.7404197 29.022935,21.9666492 29.0278788,21.0872727 L29.0278788,18.4109091 C29.0278788,17.8218182 28.7660606,17.2957576 28.3587879,16.9272727 L28.3587879,13.0606061 C28.3587879,13.0606061 29.1539394,7.04 21.0012121,7.04 C12.8472727,7.04 13.6424242,13.0606061 13.6424242,13.0606061 L13.6424242,16.9284848 C13.2186519,17.305447 12.9753451,17.8449534 12.9733333,18.4121212 L12.9733333,21.0884848 C12.9733333,21.7927273 13.3442424,22.4133333 13.8993939,22.7721212 C14.5672727,25.6824242 16.3187879,27.7781818 16.3187879,27.7781818 L16.3187879,30.2230303 C16.3187879,31.1139394 15.830303,31.9345455 15.0472727,32.3612121 L15.0484848,32.36 Z" id="Path" fill="#3A5B75"></path>
                        <path d="M21.3418182,1.00242424 C10.2981818,0.814545455 1.19151515,9.61454545 1.00242424,20.6581818 C0.895757576,26.92 3.68727273,32.5478788 8.12969697,36.2909091 C8.42060606,36.0363636 8.73333333,35.8048485 9.07878788,35.6157576 L15.0472727,32.3612121 C15.8305676,31.9339441 16.3178275,31.1128553 16.3175758,30.2206061 L16.3175758,27.7757576 C16.3175758,27.7757576 14.5648485,25.6812121 13.8969697,22.769697 C13.3227309,22.4019998 12.9744263,21.7679302 12.9721212,21.0860606 L12.9721212,18.409697 C12.9721212,17.8206061 13.2339394,17.2945455 13.6412121,16.9272727 L13.6412121,13.0581818 C13.6412121,13.0581818 12.8460606,7.03757576 20.9987879,7.03757576 C29.1527273,7.03757576 28.3575758,13.0581818 28.3575758,13.0581818 L28.3575758,16.9272727 C28.7648485,17.2945455 29.0266667,17.8206061 29.0266667,18.409697 L29.0266667,21.0860606 C29.0266667,21.9854545 28.4230303,22.7430303 27.6024242,22.9951515 C27.1484708,24.4230667 26.4789206,25.7732038 25.6169697,26.9987879 C25.3975758,27.3090909 25.1927273,27.5709091 25.0121212,27.7757576 L25.0121212,30.2824242 C25.0121212,31.2060606 25.5333333,32.0509091 26.3587879,32.4630303 L32.7490909,35.6569697 C33.1333333,35.8484848 33.4787879,36.0909091 33.7987879,36.36 C38.1078788,32.7672727 40.8921212,27.3927273 40.9951515,21.3418182 C41.1854545,10.2981818 32.3866667,1.19151515 21.3418182,1.00242424 Z" id="Path" fill="#C3D2E4"></path>
                        <path d="M29.049697,16.4175758 L29.0484848,16.4175758 L29.0484848,15.4175758 L29.049697,15.4175758 L29.049697,16.4175758 Z M29.5779335,23.3066146 C29.0557554,26.139015 26.7461533,28.2515152 24.0109091,28.2515152 L23.8427389,28.2515152 C23.4552062,28.9313816 22.7594426,29.370303 21.9818182,29.370303 L20.28,29.370303 C19.0676373,29.370303 18.1,28.313034 18.1,27.0351515 C18.1,25.7562902 19.0674098,24.6987879 20.28,24.6987879 L21.9818182,24.6987879 C22.7586633,24.6987879 23.455055,25.137969 23.8426801,25.8175758 L24.0109091,25.8175758 C25.8552978,25.8175758 27.3751515,24.157519 27.3751515,22.0969697 L27.3751515,16.5577087 L27.4653601,16.4286712 C27.5540144,16.3018569 27.6994533,16.1262091 27.8923484,15.9485675 C28.2465507,15.6223741 28.6273574,15.4175758 29.049697,15.4175758 L29.049697,16.4175758 L29.0484848,16.4175758 L29.0484848,15.4175758 L29.3987879,15.4175758 C30.8003113,15.4175758 31.9193939,16.6409639 31.9193939,18.1260606 L31.9193939,20.6060606 C31.9193939,22.0259172 30.8935665,23.2075601 29.5779335,23.3066146 Z" id="Shape" stroke="#C3D2E4" fill="#3A5B75" fill-rule="nonzero"></path>
                    </g>
                </g>
            </g>
        </g>
    </g>
</svg>