<?xml version="1.0" encoding="UTF-8"?>
<svg width="20px" height="18px" viewBox="0 0 20 18" version="1.1" xmlns="http://www.w3.org/2000/svg" xmlns:xlink="http://www.w3.org/1999/xlink">
    <!-- Generator: sketchtool 52.3 (67297) - http://www.bohemiancoding.com/sketch -->
    <title>DB2D9D0D-48A6-4DED-A854-40CE94245211</title>
    <desc>Created with sketchtool.</desc>
    <g id="Page-1" stroke="none" stroke-width="1" fill="none" fill-rule="evenodd">
        <g id="4-Чат---новое-сообщение" transform="translate(-1402.000000, -978.000000)">
            <g id="Group" transform="translate(1384.000000, 374.000000)">
                <g id="message-field" transform="translate(0.000000, 590.000000)">
                    <g id="ic_photo_camera_black_24px" transform="translate(16.000000, 12.000000)">
                        <polygon id="Shape" points="0 0 24 0 24 24 0 24"></polygon>
                        <circle id="Oval" fill-opacity="0.38" fill="#1D3878" fill-rule="nonzero" cx="12" cy="12" r="3.2"></circle>
                        <path d="M9,2 L7.17,4 L4,4 C2.9,4 2,4.9 2,6 L2,18 C2,19.1 2.9,20 4,20 L20,20 C21.1,20 22,19.1 22,18 L22,6 C22,4.9 21.1,4 20,4 L16.83,4 L15,2 L9,2 Z M12,17 C9.24,17 7,14.76 7,12 C7,9.24 9.24,7 12,7 C14.76,7 17,9.24 17,12 C17,14.76 14.76,17 12,17 Z" id="Shape" fill-opacity="0.38" fill="#1D3878" fill-rule="nonzero"></path>
                    </g>
                </g>
            </g>
        </g>
    </g>
</svg>