<?xml version="1.0" encoding="UTF-8"?>
<svg width="36px" height="36px" viewBox="0 0 36 36" version="1.1" xmlns="http://www.w3.org/2000/svg" xmlns:xlink="http://www.w3.org/1999/xlink">
    <!-- Generator: sketchtool 52.3 (67297) - http://www.bohemiancoding.com/sketch -->
    <title>DF65F33C-113C-4DF1-82BA-950ECB88D593</title>
    <desc>Created with sketchtool.</desc>
    <g id="Page-1" stroke="none" stroke-width="1" fill="none" fill-rule="evenodd" fill-opacity="0.38">
        <g id="9-Чат---сообщения-отсутствуют" transform="translate(-1617.000000, -671.000000)" fill="#000000" fill-rule="nonzero">
            <g id="Group" transform="translate(1384.000000, 374.000000)">
                <g id="Group-3" transform="translate(162.000000, 297.000000)">
                    <g id="Group-4">
                        <path d="M89.1274811,0 C79.2726955,0 71.2549622,8.0752214 71.2549622,18.000667 C71.2549622,21.1348427 72.0529608,24.1736392 73.5741248,26.8716048 L72.5648719,29.5575648 L71,33.7209027 L75.386012,33.1706377 L78.8720406,32.7330937 C81.8660253,34.8467781 85.4646346,36 89.1274811,36 C98.9822667,36.001334 107,27.9261126 107,18.000667 C107,8.0752214 98.9822667,0 89.1274811,0 Z M89.1274811,33.317375 C85.5229116,33.317375 82.2156877,32.0480972 79.6097754,29.9370808 L75.0575413,30.5080224 L76.5323486,26.5841331 C74.8840345,24.1356209 73.9204761,21.1821988 73.9204761,18.000667 C73.9204761,9.54126061 80.7289601,2.68395894 89.1281433,2.68395894 C97.5273266,2.68395894 104.335811,9.54126061 104.335811,18.000667 C104.335148,26.4600734 97.5266643,33.317375 89.1274811,33.317375 Z" id="Shape" transform="translate(89.000000, 18.000000) scale(-1, 1) translate(-89.000000, -18.000000) "></path>
                    </g>
                </g>
            </g>
        </g>
    </g>
</svg>