<?xml version="1.0" encoding="UTF-8"?>
<svg width="92px" height="16px" viewBox="0 0 92 16" version="1.1" xmlns="http://www.w3.org/2000/svg" xmlns:xlink="http://www.w3.org/1999/xlink">
    <!-- Generator: sketchtool 52.3 (67297) - http://www.bohemiancoding.com/sketch -->
    <title>FA8434AC-0AD2-4910-9491-CE08CC11B7B5</title>
    <desc>Created with sketchtool.</desc>
    <g id="Page-1" stroke="none" stroke-width="1" fill="none" fill-rule="evenodd" fill-opacity="0.38">
        <g id="3-Чат" transform="translate(-1588.000000, -1020.000000)" fill="#000000">
            <g id="Group" transform="translate(1384.000000, 374.000000)">
                <g id="unibean" transform="translate(0.000000, 638.000000)">
                    <g id="ub_logo" transform="translate(204.000000, 8.000000)">
                        <g id="logo2">
                            <path d="M11.8776529,10.92814 C11.6016998,11.6878986 11.1551944,12.3849822 10.5589851,12.9689102 C9.50352961,14.0026244 8.08641051,14.5774773 6.59371559,14.5774773 C5.10131025,14.5774773 3.68390156,14.0026244 2.62873566,12.9689102 C2.47903182,12.8222901 2.33859399,12.66858 2.20829084,12.5083473 C2.26185991,12.5245124 2.31513942,12.539543 2.36812937,12.5542901 C4.98287914,13.2732107 8.99071435,11.3030564 11.8776529,10.92814 Z M11.1867567,11.4561992 C10.0951059,11.6711664 8.98144836,12.0273653 7.93641711,12.3231579 C6.6122476,12.6980743 4.92844141,13.1640255 3.42734916,13.1141123 C4.33020517,13.7964488 5.43749235,14.1690964 6.59371559,14.1690964 C7.97550808,14.1690964 9.28693683,13.6373504 10.2639209,12.6802076 C10.6334027,12.3183367 10.9443928,11.9059854 11.1867567,11.4561992 Z" id="Fill-1" fill-rule="nonzero"></path>
                            <path d="M11.6469874,5.87065437 C11.0128454,4.91691474 10.1041982,4.15346929 9.03050024,3.68808522 L8.86139573,3.61463337 L8.86139573,2.37871389 L8.86023748,2.37871389 C8.86023748,1.63937426 9.10955083,1.48566422 9.30442642,1.36570233 C9.31832542,1.35691079 9.33019749,1.34982085 9.33019749,1.34726847 L9.33019749,0.669185979 C9.33019749,0.663230423 9.32788096,0.657842064 9.32411668,0.653871696 C9.3200628,0.650468519 9.3145611,0.64791614 9.30848029,0.64791614 L3.87918256,0.64791614 C3.87310175,0.64791614 3.86760004,0.650468519 3.86354617,0.653871696 C3.85978185,0.657842064 3.85746536,0.663230423 3.85746536,0.669185979 L3.85746536,1.34726847 C3.85746536,1.34982085 3.86933743,1.35691079 3.88323643,1.36570233 C4.07811201,1.48566422 4.32742536,1.63937426 4.32742536,2.37871389 L4.32742536,3.61434978 L4.1571626,3.68808522 C3.08346468,4.15346929 2.17481741,4.91691474 1.54067544,5.87065437 C0.926513277,6.7946162 0.569482658,7.89866266 0.569482658,9.08551971 C0.569482658,10.715073 1.24387383,12.1900655 2.33407681,13.2575279 C3.4242798,14.3255574 4.93029458,14.9857732 6.59383141,14.9857732 C8.25736826,14.9857732 9.7636726,14.3255574 10.853586,13.2575279 C11.943789,12.1900655 12.6181802,10.715073 12.6181802,9.08551971 C12.6181802,7.89866266 12.2611496,6.7946162 11.6469874,5.87065437 Z M9.42864875,3.25418049 C10.5295655,3.768627 11.4619569,4.57347775 12.1230282,5.56777185 C12.7962612,6.58049979 13.1877497,7.7889103 13.1877497,9.08551971 C13.1877497,10.8690667 12.4496548,12.4835893 11.2563675,13.6522961 C10.0630803,14.8207193 8.41460072,15.5436102 6.59383141,15.5436102 C4.77306213,15.5436102 3.12458256,14.8207193 1.93129531,13.6522961 C0.73800806,12.4835893 -8.68687637e-05,10.8690667 -8.68687637e-05,9.08551971 C-8.68687637e-05,7.7889103 0.39111213,6.58049979 1.06463461,5.56777185 C1.72512678,4.57376134 2.65751818,3.76919419 3.7575663,3.25503128 L3.7575663,2.37871389 C3.7575663,1.94537636 3.6585359,1.88411922 3.58093314,1.83619118 C3.42022592,1.73693193 3.28789584,1.65553934 3.28789584,1.34726847 L3.28789584,0.669185979 C3.28789584,0.510654776 3.35449523,0.366019866 3.46134379,0.261088657 L3.46250204,0.259954265 C3.56964018,0.155306654 3.71731709,0.0900791461 3.87918256,0.0900791461 L9.30848029,0.0900791461 C9.47034576,0.0900791461 9.61802266,0.155306654 9.72516078,0.259954265 L9.72602947,0.261088657 C9.83316761,0.366019866 9.899767,0.510654776 9.899767,0.669185979 L9.899767,1.34726847 C9.899767,1.65553934 9.76743692,1.73693193 9.6067297,1.83619118 C9.5294165,1.88411922 9.42980699,1.94537636 9.42980699,2.37871389 L9.4289383,2.37871389 L9.42864875,3.25418049 Z" id="Fill-3" fill-rule="nonzero"></path>
                            <path d="M1.58170645,9.78646008 C1.59299939,9.86785267 1.53479732,9.94243889 1.45169287,9.95321561 C1.36916754,9.96399233 1.29272303,9.90727275 1.28143009,9.82616379 C1.18326839,9.12397548 1.20527514,8.44844536 1.3323931,7.81744013 C1.46443362,7.16204545 1.70998266,6.55316085 2.05166646,6.01120536 C2.09539041,5.94144026 2.18862955,5.91988682 2.25986193,5.9629937 C2.33080475,6.00581698 2.35310107,6.0974191 2.30908757,6.16690057 C1.98709401,6.6779439 1.75544398,7.25308039 1.63006339,7.8744433 C1.50931581,8.47510358 1.48817775,9.11830351 1.58170645,9.78646008" id="Fill-6"></path>
                            <path d="M19.0585433,2.4244015 L19.0585433,3.10645436 L19.0585433,5.90641603 L19.0585433,7.00705933 C17.9060844,9.02202214 16.7576793,10.9672199 15.5087961,13.0252896 L15.4998196,13.0369171 C15.4164256,13.1446843 15.3495367,13.2677657 15.3043649,13.4013403 C15.2612201,13.5283922 15.2377655,13.6682059 15.2377655,13.816244 C15.2377655,14.1613826 15.3715434,14.4724894 15.5881362,14.6965318 C15.8012542,14.9171709 16.0951602,15.0535815 16.4191807,15.0535815 L26.2150816,15.0535815 C26.5391021,15.0535815 26.8330081,14.9171709 27.0461261,14.6965318 C27.2627189,14.4724894 27.3964968,14.1613826 27.3964968,13.816244 C27.3964968,13.6682059 27.3730422,13.5283922 27.3298974,13.4013403 C27.2847257,13.2677657 27.2178367,13.1446843 27.1344427,13.0369171 L27.1254663,13.0252896 C25.8846908,10.9606971 24.7322318,9.01720098 23.575719,7.00195458 L23.575719,5.90641603 L23.575719,3.10645436 L23.575719,2.4244015 L23.575719,2.03700682 L23.5910658,1.99333275 C23.684305,1.72760156 23.8841031,1.45534761 24.0109315,1.28263651 C24.041046,1.24151482 24.0621841,1.34956561 24.0621841,1.28121852 L24.0621841,0.668647144 C24.0621841,0.658721218 24.0587094,0.650496882 24.0529181,0.644824924 L24.0517599,0.643690531 C24.0462582,0.638302171 24.0372818,0.634615399 24.0274366,0.634615399 L19.8921939,0.634615399 L18.6068257,0.634615399 C18.5975597,0.634615399 18.5885833,0.63858577 18.5825025,0.644824924 C18.5761321,0.651064075 18.5720782,0.659572013 18.5720782,0.668647144 L18.5720782,1.28121852 C18.5720782,1.34616244 18.5978493,1.25087355 18.6337551,1.29908519 L18.6337551,1.30021958 C18.7600043,1.4698111 18.9485096,1.7222132 19.0420383,1.98397402 L19.0585433,2.02963328 L19.0585433,2.4244015 Z M15.8655371,13.2439435 L18.2859904,9.26336392 L18.42527,9.28661897 L18.6418628,9.32462106 C18.7180178,9.33880098 18.7892502,9.35298087 18.8538226,9.36659357 C19.9156484,9.59148666 20.6719858,10.0514824 21.3608551,10.47064 C22.3722971,11.0860474 23.2294022,11.6073002 24.7293362,11.0344326 C24.7855114,11.0134463 24.8509525,10.9870717 24.9233431,10.9578612 L25.119377,10.8770358 L25.2864545,10.8064199 L26.7687252,13.2439435 L26.8043414,13.2910208 C26.8309812,13.3259033 26.855594,13.3647562 26.8773112,13.4061615 C26.8975806,13.4433128 26.9155334,13.4861361 26.9311698,13.532079 C26.9470957,13.5791562 26.9592574,13.6262334 26.9670756,13.6727435 C26.9751833,13.7220895 26.9795268,13.7703012 26.9795268,13.816244 C26.9795268,13.9259964 26.9589678,14.0357487 26.9181395,14.1398292 C26.8781799,14.2405064 26.8191091,14.3343773 26.7415063,14.4149191 C26.6720113,14.4869529 26.5909338,14.5448069 26.5011694,14.5845106 C26.4125633,14.6239307 26.316139,14.6454841 26.2150816,14.6454841 L16.4191807,14.6454841 C16.3181234,14.6454841 16.2216991,14.6239307 16.1328034,14.5845106 C16.0433285,14.5448069 15.962251,14.4869529 15.892756,14.4149191 C15.8151532,14.3343773 15.7557929,14.2405064 15.7164124,14.1398292 C15.6752946,14.0357487 15.654446,13.9259964 15.654446,13.816244 C15.654446,13.7703012 15.6587895,13.7220895 15.6671868,13.6727435 C15.6747154,13.6262334 15.6871666,13.5791562 15.7030926,13.5323625 C15.7178602,13.4878377 15.7358131,13.4455816 15.756372,13.4067287 C15.7775101,13.3667414 15.8021229,13.3281721 15.8299209,13.2918715 L15.8655371,13.2439435 Z M18.4956338,9.71229936 C17.8154513,10.8313765 16.9157805,12.5477108 16.1637865,13.5351985 C16.149598,13.5527816 16.1371468,13.5726334 16.1261434,13.5933361 C16.1142714,13.6163075 16.1041367,13.6387117 16.0971872,13.6599816 C16.0887899,13.6846546 16.0821299,13.7107456 16.0774969,13.7385382 C16.0734431,13.7617932 16.0714161,13.7878842 16.0714161,13.816244 C16.0714161,13.8783519 16.0824195,13.9387583 16.1038471,13.9929255 C16.1244061,14.0456747 16.1550997,14.0938863 16.1947698,14.135008 L16.1956384,14.1358588 C16.2277799,14.1690397 16.2642648,14.1954143 16.3039348,14.2129974 C16.3389719,14.2283117 16.3777733,14.2368196 16.4191807,14.2368196 L26.2150816,14.2368196 C26.2564891,14.2368196 26.2952905,14.2283117 26.330038,14.2129974 C26.3699976,14.1954143 26.4064825,14.1690397 26.4386239,14.1358588 L26.4394926,14.135008 C26.4791627,14.0938863 26.5095668,14.0456747 26.5304153,13.9929255 C26.5518429,13.9387583 26.5628463,13.8783519 26.5628463,13.816244 C26.5628463,13.7878842 26.5605298,13.7617932 26.5567654,13.7382546 C26.5521325,13.7107456 26.5454725,13.684371 26.5370752,13.659698 C26.5304153,13.6401297 26.5208597,13.6180091 26.5081189,13.5941869 C26.4979842,13.5740514 26.4852435,13.5544832 26.4704758,13.5351985 C26.0184687,12.9413446 25.5207106,11.9853362 25.1164813,11.3205828 L24.8807774,11.4138865 C23.186547,12.0610568 22.2483643,11.4904579 21.1410771,10.8166294 C20.4817432,10.415622 19.758416,9.97547817 18.7660852,9.76533215 C18.6945632,9.75030145 18.6273847,9.73697238 18.5639705,9.72506126 L18.4956338,9.71229936 Z M19.8180659,5.2779632 C19.8148807,5.1960034 19.8800323,5.12708911 19.9634263,5.12396953 C20.0471099,5.12056637 20.1174736,5.1843759 20.1206587,5.26633567 C20.1499046,5.98809224 20.1991302,6.75182126 20.0670897,7.20671223 C19.9350492,7.66217042 19.8481804,7.80141695 19.5151835,8.33004336 C19.47117,8.39952483 19.3779308,8.42136189 19.3066984,8.37825502 C19.235466,8.33514815 19.2134593,8.24411321 19.2574728,8.17434815 C19.5762812,7.66869316 19.6524361,7.54986567 19.7752106,7.12645404 C19.8982747,6.70247523 19.8458639,5.96597159 19.8180659,5.2779632 Z M16.4191807,15.5980894 C15.9370591,15.5980894 15.5009779,15.3964513 15.1862234,15.0708809 C14.8746541,14.7484302 14.6818054,14.3045995 14.6818054,13.816244 C14.6818054,13.6137551 14.7159738,13.4169382 14.7788089,13.2311816 C14.841644,13.045425 14.9340144,12.8735647 15.0498394,12.7215562 L17.5510807,8.60740209 L18.504031,6.90014296 L18.5025833,6.90014296 L18.5025833,3.10645436 L18.5025833,2.4244015 L18.5025833,2.12066819 C18.4287448,1.94398673 18.2857009,1.75227457 18.1869601,1.62011797 C18.087061,1.48739417 18.0161182,1.39182169 18.0161182,1.28121852 L18.0161182,0.668647144 C18.0161182,0.509265146 18.0827176,0.364346638 18.1895661,0.259982625 C18.2964147,0.155335014 18.4440916,0.090107506 18.6068257,0.090107506 L24.0274366,0.090107506 C24.1890125,0.090107506 24.3363999,0.155051416 24.4438276,0.259982625 L24.4449858,0.261117016 C24.5518344,0.366331824 24.6181442,0.510399536 24.6181442,0.668647144 L24.6181442,1.28121852 C24.6181442,1.38444815 24.5532822,1.47293068 24.4603326,1.59941532 C24.3607231,1.7352587 24.2075445,1.94398673 24.1316791,2.13002692 L24.1316791,2.4244015 L24.1316791,3.10645436 L24.1316791,6.90014296 L24.1302313,6.90014296 L25.0831817,8.60740209 L27.5844229,12.7215562 C27.7002479,12.8735647 27.7926184,13.045425 27.8551639,13.2311816 C27.9182885,13.4169382 27.9524569,13.6137551 27.9524569,13.816244 C27.9524569,14.3045995 27.7596083,14.7484302 27.448039,15.0708809 C27.1329949,15.3964513 26.6972033,15.5980894 26.2150816,15.5980894 L16.4191807,15.5980894 Z" id="Fill-10" fill-rule="nonzero"></path>
                        </g>
                        <path d="M40.836,13.176 C39.7906614,13.176 38.9480032,12.813337 38.308,12.088 C37.6679968,11.362663 37.348,10.2266744 37.348,8.68 L37.348,2.216 L38.1,2.216 L38.1,8.696 C38.1,10.0080066 38.3533308,10.9786635 38.86,11.608 C39.3666692,12.2373365 40.0359958,12.552 40.868,12.552 C41.7533378,12.552 42.4599974,12.2293366 42.988,11.584 C43.5160026,10.9386634 43.78,9.96000656 43.78,8.648 L43.78,2.216 L44.532,2.216 L44.532,8.6 C44.532,10.1466744 44.1933367,11.2959962 43.516,12.048 C42.8386633,12.8000038 41.9453389,13.176 40.836,13.176 Z M47.044,8.056 C47.044,7.18132896 47.0226669,6.25333824 46.98,5.272 L47.668,5.272 L47.716,6.744 L47.764,6.744 C48.372003,5.65599456 49.209328,5.112 50.276,5.112 C51.150671,5.112 51.8039978,5.42133024 52.236,6.04 C52.6680022,6.65866976 52.884,7.51732784 52.884,8.616 L52.884,13 L52.132,13 L52.132,8.808 C52.132,7.77332816 51.9506685,7.00000256 51.588,6.488 C51.2253315,5.97599744 50.7240032,5.72 50.084,5.72 C49.6039976,5.72 49.1746686,5.89599824 48.796,6.248 C48.4173314,6.60000176 48.132001,7.042664 47.94,7.576 C47.8439995,7.842668 47.796,8.1626648 47.796,8.536 L47.796,13 L47.044,13 L47.044,8.056 Z M55.716,3.8 C55.5453325,3.8 55.4013339,3.73866728 55.284,3.616 C55.1666661,3.49333272 55.108,3.34133424 55.108,3.16 C55.108,2.97866576 55.1666661,2.82666728 55.284,2.704 C55.4013339,2.58133272 55.5453325,2.52 55.716,2.52 C55.8866675,2.52 56.0306661,2.58133272 56.148,2.704 C56.2653339,2.82666728 56.324,2.97866576 56.324,3.16 C56.324,3.34133424 56.2653339,3.49333272 56.148,3.616 C56.0306661,3.73866728 55.8866675,3.8 55.716,3.8 Z M55.348,5.272 L56.1,5.272 L56.1,13 L55.348,13 L55.348,5.272 Z M60.484,13.16 C59.8653302,13.16 59.4306679,12.9413355 59.18,12.504 C58.9293321,12.0666645 58.804,11.4213376 58.804,10.568 L58.804,5.88 L57.652,5.88 L57.652,5.272 L58.804,5.272 L58.804,3.4 L59.556,3.144 L59.556,5.272 L61.524,5.272 L61.524,5.88 L59.556,5.88 L59.556,10.568 C59.556,11.2293366 59.6359992,11.7173318 59.796,12.032 C59.9560008,12.3466682 60.2386646,12.504 60.644,12.504 C60.9426682,12.504 61.187999,12.4613338 61.38,12.376 L61.46,12.984 C61.2039987,13.1013339 60.8786686,13.16 60.484,13.16 Z M64.884,13.096 C64.4146643,13.096 63.8546699,13.058667 63.204,12.984 L63.204,2.36 C63.8440032,2.21066592 64.5693293,2.136 65.38,2.136 C66.4146718,2.136 67.2493302,2.33333136 67.884,2.728 C68.5186698,3.12266864 68.836,3.78932864 68.836,4.728 C68.836,5.32533632 68.6413353,5.84533112 68.252,6.288 C67.8626647,6.73066888 67.3373366,7.04266576 66.676,7.224 L66.676,7.256 C67.401337,7.39466736 68.0093309,7.68533112 68.5,8.128 C68.9906691,8.57066888 69.236,9.18132944 69.236,9.96 C69.236,11.0586722 68.8280041,11.8559975 68.012,12.352 C67.1959959,12.8480025 66.1533397,13.096 64.884,13.096 Z M65.044,6.984 C65.9720046,6.984 66.7079973,6.78933528 67.252,6.4 C67.7960027,6.01066472 68.068,5.4693368 68.068,4.776 C68.068,3.42132656 67.1826755,2.744 65.412,2.744 C64.803997,2.744 64.3186685,2.78666624 63.956,2.872 L63.956,6.984 L65.044,6.984 Z M65.076,12.488 C66.0573382,12.488 66.8626635,12.2826687 67.492,11.872 C68.1213365,11.4613313 68.436,10.8240043 68.436,9.96 C68.436,9.1066624 68.1080033,8.49600184 67.452,8.128 C66.7959967,7.75999816 65.9293387,7.576 64.852,7.576 L63.956,7.576 L63.956,12.408 C64.2013346,12.4613336 64.5746642,12.488 65.076,12.488 Z M74.116,13.16 C73.4013298,13.16 72.7800026,12.997335 72.252,12.672 C71.7239974,12.346665 71.3160014,11.8906696 71.028,11.304 C70.7399986,10.7173304 70.596,10.0400038 70.596,9.272 C70.596,8.471996 70.7373319,7.75733648 71.02,7.128 C71.3026681,6.49866352 71.6999974,6.00533512 72.212,5.648 C72.7240026,5.29066488 73.3106634,5.112 73.972,5.112 C74.697337,5.112 75.2786645,5.29066488 75.716,5.648 C76.1533355,6.00533512 76.4626658,6.43999744 76.644,6.952 C76.8253342,7.46400256 76.916,7.97599744 76.916,8.488 C76.916,8.74400128 76.9000002,8.96799904 76.868,9.16 L71.38,9.16 C71.38,10.1946718 71.6279975,11.0186636 72.124,11.632 C72.6200025,12.2453364 73.3213288,12.552 74.228,12.552 C74.9960038,12.552 75.6893302,12.4133347 76.308,12.136 L76.452,12.68 C76.2066654,12.8080006 75.8866686,12.9199995 75.492,13.016 C75.0973314,13.1120005 74.6386693,13.16 74.116,13.16 Z M76.132,8.552 L76.132,8.504 C76.132,7.69332928 75.9506685,7.02666928 75.588,6.504 C75.2253315,5.98133072 74.6653371,5.72 73.908,5.72 C73.182663,5.72 72.6013355,5.99199728 72.164,6.536 C71.7266645,7.08000272 71.4760003,7.751996 71.412,8.552 L76.132,8.552 Z M80.324,13.176 C79.6413299,13.176 79.100002,12.9706687 78.7,12.56 C78.299998,12.1493313 78.1,11.6506696 78.1,11.064 C78.1,10.1679955 78.4946627,9.47733576 79.284,8.992 C80.0733373,8.50666424 81.2039926,8.264 82.676,8.264 L82.676,8.088 C82.676,7.41599664 82.5480013,6.85066896 82.292,6.392 C82.0359987,5.93333104 81.545337,5.704 80.82,5.704 C80.478665,5.704 80.137335,5.75466616 79.796,5.856 C79.454665,5.95733384 79.1560013,6.09866576 78.9,6.28 L78.692,5.768 C79.0120016,5.54399888 79.3693314,5.3786672 79.764,5.272 C80.1586686,5.1653328 80.5319982,5.112 80.884,5.112 C82.5800085,5.112 83.428,6.14132304 83.428,8.2 L83.428,11.16 C83.428,11.8960037 83.465333,12.5093309 83.54,13 L82.852,13 C82.7986664,12.6479982 82.7613334,12.2586688 82.74,11.832 L82.708,11.832 C82.4839989,12.2160019 82.1666687,12.5359987 81.756,12.792 C81.3453313,13.0480013 80.8680027,13.176 80.324,13.176 Z M80.484,12.584 C80.8146683,12.584 81.1266652,12.5093341 81.42,12.36 C81.7133348,12.2106659 81.9666656,12.002668 82.18,11.736 C82.5106683,11.3199979 82.676,10.845336 82.676,10.312 L82.676,8.856 C81.534661,8.84533328 80.6173368,9.00799832 79.924,9.344 C79.2306632,9.68000168 78.884,10.2213296 78.884,10.968 C78.884,11.4586691 79.0333318,11.8506652 79.332,12.144 C79.6306682,12.4373348 80.0146643,12.584 80.484,12.584 Z M85.86,8.056 C85.86,7.18132896 85.8386669,6.25333824 85.796,5.272 L86.484,5.272 L86.532,6.744 L86.58,6.744 C87.188003,5.65599456 88.025328,5.112 89.092,5.112 C89.966671,5.112 90.6199978,5.42133024 91.052,6.04 C91.4840022,6.65866976 91.7,7.51732784 91.7,8.616 L91.7,13 L90.948,13 L90.948,8.808 C90.948,7.77332816 90.7666685,7.00000256 90.404,6.488 C90.0413315,5.97599744 89.5400032,5.72 88.9,5.72 C88.4199976,5.72 87.9906686,5.89599824 87.612,6.248 C87.2333314,6.60000176 86.948001,7.042664 86.756,7.576 C86.6599995,7.842668 86.612,8.1626648 86.612,8.536 L86.612,13 L85.86,13 L85.86,8.056 Z" id="UnitBean"></path>
                    </g>
                </g>
            </g>
        </g>
    </g>
</svg>